# xmcd
#
# Track frame offsets:
#	150
#	17438
#	33674
#	51149
#	64901
#	81706
#	98199
#	114529
#	133790
#	149968
#	163865
#	181439
#	195516
#	208565
#	226525
#	244601
#	260346
#	273211
#	291389
#
# Disc length: 4123 seconds
#
# Revision: 1
# Processed by: cddbd v1.5.2PL0 Copyright (c) Steve Scherf et al.
# Submitted via: audiograbber 1.83.01
#
DISCID=1e101913
DTITLE=Various Artist - Now Country 3
DYEAR=2009
DGENRE=Country
TTITLE0=Keith Urban - Sweet Thing
TTITLE1=Zac Brown Band - Chicken Fried
TTITLE2=Terri Clark - Gypsy Boots
TTITLE3=Lady Antebellum - Lookin' For A Good Time
TTITLE4=Johnny Reid - A Woman Like You
TTITLE5=Darius Rucker - It Won't Be Like This For Long
TTITLE6=Victoria Banks - The Wheel
TTITLE7=Sugarland - Life In A Northern Town (Live) (Feat. Little Big Town And J
TTITLE7=ake Owen)
TTITLE8=Aaron Pritchett - Hard To Miss
TTITLE9=Dierks Bentley - Sideways
TTITLE10=One More Girl - I Can Love Anyone
TTITLE11=The Road Hammers - Homegrown
TTITLE12=Gord Bamford - Drinkin' Buddy
TTITLE13=Trace Adkins - All I Ask For Anymore
TTITLE14=Blake Shelton - I'll Just Hold On
TTITLE15=Jessie Farrell - You Make Me Feel
TTITLE16=Eric Church - Love Your Love The Most
TTITLE17=John Rich - Shuttin' Detroit Down
TTITLE18=Luke Bryan - Do I
EXTD=
EXTT0=
EXTT1=
EXTT2=
EXTT3=
EXTT4=
EXTT5=
EXTT6=
EXTT7=
EXTT8=
EXTT9=
EXTT10=
EXTT11=
EXTT12=
EXTT13=
EXTT14=
EXTT15=
EXTT16=
EXTT17=
EXTT18=
PLAYORDER=
